<svg width="46" height="46" viewBox="0 0 46 46" fill="none" xmlns="http://www.w3.org/2000/svg">
<g id="Group 18">
<path id="Shape" fill-rule="evenodd" clip-rule="evenodd" d="M18.2318 28.7027H44.4318C45.0895 28.7027 45.6227 28.1673 45.6227 27.5068V1.19595C45.6227 0.535443 45.0895 0 44.4318 0H18.2318C17.5741 0 17.0409 0.535443 17.0409 1.19595V27.5068C17.0409 28.1673 17.5741 28.7027 18.2318 28.7027ZM43.2409 26.3108H19.4227V2.39189H43.2409V26.3108Z" fill="#3EE9E5"/>
<path id="Shape_2" fill-rule="evenodd" clip-rule="evenodd" d="M2.56471e-05 29.7696C0.0109695 38.4389 7.01575 45.459 15.6485 45.4524C19.7997 45.4493 23.7793 43.7886 26.7102 40.8363C29.6411 37.884 31.2827 33.8826 31.2732 29.7138C31.2535 21.0445 24.2416 14.0315 15.6089 14.0469C6.97612 14.0623 -0.0109182 21.1003 2.56471e-05 29.7696ZM3.38968 24.6706C5.4422 19.6912 10.282 16.4459 15.6485 16.4507C22.943 16.4638 28.8587 22.3885 28.8914 29.7138C28.9107 35.1029 25.6922 39.972 20.7394 42.0466C15.7865 44.1213 10.0766 42.9921 6.27679 39.1865C2.47699 35.381 1.33715 29.65 3.38968 24.6706Z" fill="#3EE9E5"/>
</g>
</svg>
