<svg width="1440" height="228" viewBox="0 0 1440 228" fill="none" xmlns="http://www.w3.org/2000/svg">
<path opacity="0.25" d="M545.559 0.00522368C546.05 -0.00527271 546.459 -0.00112564 546.797 0.0242526C547.123 0.0486531 547.397 0.0883243 547.716 0.185879C548.206 0.335614 548.641 0.55459 549.094 1.04011C550.093 2.11319 550.164 3.70655 549.346 4.85933C548.091 6.62552 545.737 8.04159 542.408 9.23387L541.643 9.50014L540.617 9.85105L539.429 10.2544L537.559 10.882L534.875 11.7671L531.269 12.93L527.206 14.2142L519.83 16.5051L505.161 21.0259L500.483 22.4879L496.429 23.7758L493.164 24.8351L490.429 25.7429C489.165 26.1671 487.93 26.5885 486.678 27.0218L484.062 27.9337L480.936 29.0309L475.198 31.0635L469.98 32.9349L465.742 34.4709L459.15 36.8869L453.921 38.8229L443.76 42.6237L430.529 47.6209L398.49 59.7919L382.47 65.9017L372.456 69.7387L361.391 73.9987L353.868 76.9109L345.225 80.2748L336.969 83.51L332.975 85.0838L327.78 87.1408L321.48 89.6516L319.016 90.6389L314.177 92.5869L309.448 94.5034L304.819 96.3925L300.279 98.2586L295.818 100.106L291.426 101.939L286.017 104.216L281.742 106.032L277.503 107.847L273.288 109.666L269.863 111.154L265.872 112.901L261.204 114.96L258.277 116.262L255.382 117.559L252.518 118.851L249.685 120.138L246.882 121.42C246.417 121.634 245.954 121.847 245.492 122.06L242.736 123.335L240.01 124.606C239.558 124.817 239.108 125.029 238.659 125.24L235.979 126.504L233.33 127.763L230.711 129.019L228.123 130.27L225.565 131.517L223.038 132.759L220.541 133.998L218.075 135.232L215.639 136.463C215.235 136.668 214.833 136.872 214.432 137.077L212.041 138.302L209.68 139.523L207.35 140.74C206.964 140.942 206.579 141.145 206.196 141.347L203.91 142.559L201.655 143.767L199.43 144.971L197.234 146.173L195.068 147.371C194.71 147.57 194.353 147.769 193.997 147.968L191.876 149.161L189.785 150.351L187.723 151.537C186.7 152.13 185.688 152.721 184.687 153.311L182.699 154.49C182.371 154.687 182.043 154.883 181.717 155.079L179.774 156.253C179.453 156.449 179.132 156.644 178.814 156.84L176.915 158.01C175.345 158.984 173.806 159.955 172.297 160.924L170.501 162.085C170.204 162.279 169.908 162.472 169.614 162.665L167.862 163.822C166.125 164.979 164.431 166.131 162.781 167.281L161.146 168.429C160.875 168.62 160.607 168.811 160.339 169.002L158.747 170.147C156.907 171.482 155.125 172.813 153.403 174.139C145.757 180.03 141.62 186.476 140.053 193.876C139.17 198.042 139.064 202.089 139.618 207.441L139.734 208.494C139.754 208.672 139.776 208.852 139.798 209.033L139.938 210.139L140.093 211.284L140.265 212.468C140.295 212.669 140.326 212.872 140.357 213.077L140.552 214.327C140.766 215.673 141.751 217.057 143.861 218.52L144.511 218.967L144.924 219.244L145.326 219.505L145.717 219.751L146.102 219.982C146.165 220.019 146.229 220.056 146.292 220.092L146.672 220.301C146.735 220.335 146.799 220.368 146.862 220.4L147.243 220.588L147.629 220.762C148.795 221.265 150.06 221.59 151.769 221.783L152.355 221.842L152.977 221.892L153.637 221.933L154.339 221.966C154.459 221.971 154.582 221.975 154.706 221.979L155.475 221.999L156.292 222.012L157.161 222.018L158.22 222.015L159.069 222.008L160.9 221.98L162.924 221.936L168.726 221.773L175.088 221.563L179.545 221.389L182.559 221.252L184.426 221.157L186.614 221.032L189.047 220.872L191.293 220.7L192.7 220.577L194.37 220.414L195.645 220.275L196.875 220.128L198.066 219.972L198.94 219.849L200.083 219.677L200.93 219.54L202.036 219.352L202.595 219.251L203.958 218.981L206.74 218.396L216.794 216.199L228.209 213.698L231.135 213.077L242.021 210.802L249.08 209.31L256.658 207.687L262.045 206.517L268.897 205.005L274.64 203.714L279.418 202.621L284.097 201.533L293.275 199.374L299.326 197.943L315.761 194.025L330.815 190.398L348.01 186.219L377.446 179.009L415.823 169.556L486.42 152.047L620.163 118.761L672.304 105.857L697.389 99.6869L717.173 94.8415L719.232 94.3429L722.655 93.5207L730.128 91.7586L738.741 89.7758L745.53 88.2399L757.285 85.6148L879.199 58.6489L907.159 52.5126L926.088 48.3926L942.65 44.8197L957.586 41.6269L967.75 39.4709L980.239 36.8391C981.084 36.6616 981.932 36.4836 982.783 36.305C984.764 35.8895 986.736 35.483 988.709 35.0837L991.247 34.5742L993.689 34.0918L995.937 33.6547L998.196 33.2219L1002 32.5086L1005.85 31.8029L1010.58 30.9624L1013.81 30.4038L1017.1 29.8449L1021.31 29.1438L1025.66 28.4375L1029.25 27.8669L1032.94 27.2898L1037.7 26.5574L1041.65 25.9608L1046.77 25.1995L1053.19 24.2598L1058.8 23.4516L1067.08 22.2765L1078.51 20.6799L1097.24 18.0922L1109.09 16.3927L1114.42 15.6529L1118.1 15.1648L1120.07 14.9148L1122.42 14.6276L1123.8 14.4669L1126.05 14.2155L1128.29 13.9805L1131.01 13.7138L1133.41 13.4948L1134.94 13.3637L1136.87 13.2107L1138.24 13.1128L1139.54 13.0297L1140.37 12.9828L1141.18 12.9428L1142.33 12.8959L1143.07 12.8735L1143.78 12.8584L1144.46 12.8506L1145.12 12.8503L1145.75 12.8575L1146.36 12.8725C1146.46 12.8756 1146.55 12.8791 1146.65 12.8829L1147.22 12.9095C1147.32 12.9146 1147.41 12.92 1147.5 12.9258L1148.03 12.9644C1148.12 12.9715 1148.21 12.979 1148.29 12.9868L1148.79 13.0376L1149.27 13.0967L1149.73 13.1641C1150.03 13.2119 1150.31 13.2653 1150.58 13.3246L1150.98 13.4178C1151.1 13.4503 1151.23 13.4843 1151.35 13.5198L1151.71 13.6307C1151.82 13.6692 1151.93 13.7091 1152.04 13.7506L1152.36 13.8797C1152.41 13.902 1152.46 13.9246 1152.51 13.9477L1152.8 14.0906C1154.21 14.8288 1154.97 15.919 1155.32 17.4217L1155.39 17.7277C1155.4 17.7796 1155.41 17.832 1155.42 17.8849L1155.47 18.2076L1155.56 18.9258L1155.58 19.004L1155.61 19.1555L1155.68 19.4267L1156.05 20.6521L1156.07 20.7462C1156.73 23.1447 1156.57 25.1448 1154.9 27.0601C1150.57 32.0622 1146.42 35.4975 1140.07 38.7198L1139.18 39.1625L1138.32 39.5808L1137.75 39.8561L1136.59 40.401L1135.41 40.9425L1134.5 41.3493L1133.57 41.7591L1132.61 42.1741L1131.27 42.7389L1130.23 43.174L1128.37 43.9273L1126.37 44.7241L1124.19 45.5743L1120.3 47.0701L1115.19 48.9962L1107.37 51.9397L1103.56 53.3999L1101.28 54.2924L1099.78 54.8909L1098.65 55.3517L1098.1 55.5777C1097.37 55.8791 1096.64 56.1813 1095.91 56.4937L1090.66 58.7244L1085.39 60.9824L1081.41 62.6979L1076.05 65.0196L1070.63 67.3869L1065.13 69.8064L1059.53 72.2845L1055.25 74.1857L1049.44 76.7826L1041.97 80.1376L1035.46 83.0774L1034.35 83.566L1033.19 84.0682L1031.96 84.5872L1030.21 85.3103L1028.79 85.8801L1026.77 86.6823L1023.28 88.0389L1008.89 93.5255L1006.82 94.3265L1004.19 95.3588L1002.3 96.1079L1000.5 96.8369L998.203 97.7798L996.566 98.4668L995.513 98.9158L994.489 99.3582L993.495 99.7942L992.529 100.224L991.59 100.649L990.234 101.276L988.936 101.893L988.102 102.298L987.293 102.701L986.508 103.1L985.745 103.495L985.005 103.889L984.287 104.28C984.169 104.345 984.052 104.41 983.936 104.475L983.249 104.863L982.582 105.251L981.907 105.654L981.236 106.069L980.597 106.478L979.993 106.88C979.895 106.946 979.799 107.012 979.704 107.078L979.15 107.469C978.882 107.663 978.626 107.853 978.383 108.041L977.914 108.412C977.763 108.534 977.617 108.654 977.478 108.774L977.075 109.127C975.531 110.52 974.787 111.684 974.821 112.509C974.846 113.106 975.305 113.803 976.255 114.562L976.555 114.792C976.712 114.908 976.881 115.025 977.06 115.143L977.435 115.381L977.841 115.622L978.277 115.866C978.428 115.948 978.584 116.03 978.745 116.113L979.244 116.361C979.33 116.403 979.417 116.444 979.506 116.486L980.053 116.738C980.241 116.822 980.435 116.907 980.633 116.991L981.246 117.246C981.351 117.289 981.457 117.332 981.565 117.374L982.227 117.631L982.924 117.889C983.161 117.975 983.405 118.061 983.654 118.147L984.419 118.406L985.218 118.666C985.354 118.709 985.492 118.752 985.631 118.795L985.759 118.833L986.046 118.905C986.097 118.917 986.15 118.929 986.205 118.94L986.553 119.006L986.943 119.068C987.011 119.078 987.081 119.088 987.153 119.098L987.604 119.154L988.097 119.207L988.632 119.256L989.513 119.323L990.489 119.382L991.194 119.418L992.331 119.466L995.755 119.569L996.802 119.596L998.921 119.642C999.633 119.655 1000.35 119.666 1001.07 119.675L1003.25 119.697C1003.61 119.7 1003.98 119.702 1004.34 119.703L1006.55 119.707L1008.78 119.699L1011.02 119.68L1013.28 119.649L1015.54 119.608L1017.81 119.555L1020.08 119.492C1020.46 119.48 1020.84 119.468 1021.21 119.456L1023.48 119.377C1024.24 119.349 1024.99 119.319 1025.74 119.287L1027.99 119.188C1028.37 119.17 1028.74 119.152 1029.11 119.134L1031.35 119.019L1033.56 118.895L1035.75 118.761L1037.92 118.618L1040.06 118.465L1042.17 118.303C1042.52 118.276 1042.87 118.248 1043.21 118.219L1045.27 118.044C1046.97 117.895 1048.62 117.736 1050.23 117.569L1052.14 117.364C1052.45 117.33 1052.76 117.295 1053.07 117.259L1054.9 117.043C1055.8 116.932 1056.68 116.819 1057.54 116.703L1059.27 116.46L1062.17 116.039L1065.97 115.462L1069.59 114.897L1074.93 114.043L1081.62 112.947L1087.34 111.994L1097.39 110.292L1112.14 107.748L1126.62 105.215L1151.39 100.825L1177.2 96.1981L1193.5 93.2521L1236.34 85.454L1300.84 73.6607L1304.68 72.9883L1309.87 72.0926L1315.12 71.2008L1319.1 70.5364L1324.43 69.6587L1329.77 68.7933L1335.13 67.9433L1339.13 67.3176L1343.12 66.7036L1347.09 66.1025L1351.04 65.5156L1353.64 65.1329L1357.52 64.5725L1361.35 64.0298L1363.88 63.6784L1366.38 63.3358L1370.07 62.8393L1373.7 62.3647L1377.24 61.9132L1379.56 61.6258L1381.84 61.3497L1385.18 60.9575L1388.42 60.5927L1390.52 60.3655L1392.57 60.1515L1394.45 59.9619L1397.82 59.6299L1401.01 59.3274L1404.02 59.0538L1406.87 58.8088L1409.58 58.5919L1410.89 58.4939L1412.8 58.3598L1414.04 58.2789L1415.26 58.2047L1416.45 58.1373L1417.63 58.0765L1419.37 57.9976L1421.07 57.9334L1422.2 57.8986L1423.87 57.8585L1424.98 57.8396L1426.63 57.823L1427.74 57.8197L1428.84 57.8224L1429.95 57.8313L1431.63 57.8559L1433.33 57.8938L1434.49 57.9264C1436.37 57.9842 1438.01 58.7582 1438.38 60.7155L1438.44 61.0539L1438.48 61.1985L1438.53 61.373L1438.6 61.5868L1438.76 62.0023L1439.05 62.7113C1440.4 66.0822 1440.28 68.6737 1437.31 71.0342L1437.06 71.234L1436.55 71.6295L1436.03 72.0206C1435.94 72.0855 1435.85 72.1503 1435.76 72.215L1435.22 72.602C1435.13 72.6664 1435.04 72.7307 1434.94 72.795L1434.38 73.181L1433.79 73.5679L1433.19 73.9571C1433.09 74.0223 1432.98 74.0876 1432.88 74.153L1432.24 74.5482L1431.58 74.949L1430.89 75.3567L1430.17 75.7727L1429.42 76.1984L1428.63 76.635L1427.39 77.3134L1426.06 78.024L1424.64 78.7713L1418.24 82.0728L1416.93 82.7569L1415.75 83.3837L1414.6 84.0068L1413.8 84.4505C1413.67 84.5236 1413.54 84.5963 1413.41 84.6685L1412.66 85.0973L1411.95 85.5165L1411.27 85.9262C1411.16 85.9937 1411.05 86.0609 1410.94 86.1276L1410.31 86.5235L1409.71 86.9105L1409.15 87.2887C1409.06 87.3511 1408.97 87.413 1408.88 87.4746L1408.36 87.8401C1408.28 87.9003 1408.2 87.9602 1408.12 88.0197L1407.65 88.3729C1407.58 88.4311 1407.5 88.4889 1407.43 88.5465L1407.01 88.8878C1405.39 90.2374 1404.52 91.4031 1404.3 92.4415L1404.28 92.5229L1407.91 92.5749L1413.28 92.67L1415.94 92.703L1417.39 92.7125L1419.18 92.7121L1420.84 92.6961L1422.01 92.6733L1423.14 92.6407L1424.24 92.5981L1425.33 92.545L1426.36 92.4831L1427.33 92.41L1427.95 92.353L1428.57 92.288L1429.2 92.2141L1429.84 92.1303L1430.5 92.0355L1431.19 91.9286L1432.32 91.7436L1433.13 91.6022L1437.1 90.8817L1438.26 90.6836L1439.57 90.4823L1440.43 96.4191L1439.43 96.5723L1438.22 96.7763L1434.57 97.4402L1433.25 97.6712L1432.44 97.8062L1431.67 97.9272L1430.94 98.0352L1430.24 98.1313L1429.55 98.2165C1429.43 98.2298 1429.32 98.2428 1429.21 98.2553L1428.53 98.3261L1427.84 98.3885C1427.72 98.3983 1427.61 98.4078 1427.49 98.4169L1426.78 98.4689L1426.03 98.5151L1425.28 98.556L1424.14 98.6081L1422.98 98.6493L1421.79 98.68L1420.98 98.695L1419.27 98.712L1417.9 98.7141L1415.94 98.7033L1413.78 98.6781L1405.13 98.5328L1403.87 98.5199C1403.66 98.5181 1403.45 98.5142 1403.24 98.508L1402.64 98.4823C1402.54 98.4768 1402.45 98.4708 1402.36 98.4641C1402.04 98.4402 1401.76 98.4089 1401.5 98.3615C1401.28 98.32 1401.07 98.2672 1400.84 98.1831C1400.63 98.1047 1400.42 98.0059 1400.2 97.8639C1399.76 97.5844 1399.38 97.2044 1399.1 96.6365C1397.25 92.8598 1398.29 89.1501 1401.49 85.835C1402.99 84.2791 1404.94 82.7889 1407.52 81.1784L1408.36 80.6656C1408.93 80.3208 1409.53 79.9697 1410.16 79.6108L1411.13 79.0662L1412.15 78.5083L1412.91 78.0966L1413.71 77.6709L1415.47 76.7486L1421.33 73.733L1423.15 72.7784L1424 72.326L1425.2 71.6752L1425.96 71.2583L1427.03 70.6552L1427.7 70.2664L1428.35 69.8868L1428.97 69.5153L1429.56 69.1507L1430.13 68.7918L1430.67 68.4375L1431.2 68.0866C1431.28 68.0283 1431.37 67.9701 1431.45 67.912L1431.95 67.5641C1432.03 67.5061 1432.11 67.4482 1432.19 67.3903L1432.67 67.0426C1432.74 66.9846 1432.82 66.9265 1432.9 66.8684L1433.35 66.5184L1433.76 66.191C1433.88 66.0846 1433.89 65.9989 1433.79 65.7159L1433.72 65.5207L1433.14 64.0952L1433.06 63.8879L1432.07 63.8659L1430.43 63.8377L1428.81 63.8228L1427.19 63.8212L1426.11 63.8277L1424.49 63.8489L1422.87 63.8839L1421.22 63.933L1420.11 63.9736L1418.99 64.0206L1417.28 64.1032L1415.52 64.2005L1413.72 64.3126L1411.86 64.4397L1410.59 64.5329L1407.96 64.7397L1405.18 64.9743L1403.01 65.1686L1399.96 65.4527L1395.89 65.8484L1393.22 66.1154L1391.3 66.3163L1388.32 66.6398L1386.28 66.8698L1384.21 67.1108L1382.09 67.3626L1379.94 67.6248L1376.64 68.0369L1373.27 68.4706L1369.83 68.9248L1366.33 69.3984L1362.77 69.8902L1360.37 70.2278L1356.73 70.7477L1354.29 71.1029L1350.59 71.6478L1345.61 72.3952L1341.85 72.9699L1338.07 73.5556L1333.02 74.3517L1327.96 75.1628L1324.04 75.8018C1318.18 76.762 1312.37 77.7431 1306.7 78.7265L1300.92 79.7458L1234.22 91.9408L1185.15 100.861L1160.1 105.365L1136.85 109.504L1123.12 111.922L1108.28 114.507L1096.93 116.456L1086.72 118.181L1079.23 119.421L1073.96 120.277L1069.83 120.934L1067.28 121.331L1065.15 121.658L1061.69 122.174L1059.22 122.528C1058.36 122.648 1057.48 122.766 1056.57 122.88L1054.74 123.105L1052.85 123.322L1050.91 123.531C1049.92 123.633 1048.92 123.732 1047.91 123.828L1045.86 124.015L1043.76 124.194C1043.41 124.223 1043.06 124.251 1042.71 124.279L1040.56 124.444C1040.2 124.471 1039.84 124.497 1039.48 124.523L1037.29 124.674C1036.92 124.698 1036.55 124.722 1036.18 124.745L1033.96 124.882C1033.21 124.926 1032.46 124.968 1031.71 125.008L1029.45 125.125L1027.17 125.231L1024.88 125.328L1022.58 125.413C1022.19 125.427 1021.81 125.44 1021.43 125.452L1019.12 125.522L1016.82 125.581C1016.44 125.59 1016.05 125.598 1015.67 125.606L1013.37 125.649C1012.61 125.661 1011.85 125.671 1011.09 125.68L1008.81 125.699L1006.55 125.707L1004.31 125.703L1002.09 125.687L999.891 125.659L997.724 125.619C997.365 125.611 997.008 125.603 996.652 125.594L992.525 125.476L991.641 125.444L990.805 125.407L990.015 125.367L989.269 125.323L988.566 125.274L987.904 125.219C987.689 125.2 987.482 125.179 987.28 125.158L986.694 125.091L986.142 125.017C985.964 124.991 985.792 124.964 985.624 124.936L985.138 124.846C984.981 124.815 984.829 124.782 984.681 124.748L984.252 124.641C984.114 124.604 983.98 124.565 983.85 124.525L983.374 124.375L982.446 124.073C981.077 123.617 979.809 123.146 978.644 122.657L977.882 122.329C972.036 119.738 968.989 116.664 968.826 112.759C968.646 108.441 972.051 104.681 978.405 100.763L979.181 100.292L979.88 99.8798L980.598 99.4681L981.335 99.0559L982.091 98.6427L982.869 98.2283L983.668 97.8121L984.489 97.3938L985.333 96.9729L986.644 96.3358L987.549 95.9066L988.479 95.4734L989.436 95.0357L990.922 94.3699L992.472 93.6916L993.542 93.2318L995.202 92.5296L996.349 92.0526L998.128 91.3227L999.355 90.8258L1001.91 89.8056L1003.92 89.0156L1006.01 88.2029L1012.51 85.7198L1021.25 82.3922L1024.03 81.3131L1026.05 80.515L1027.46 79.9501L1029.2 79.236L1030.42 78.7262L1031.57 78.2351L1032.65 77.7599L1033.34 77.4505L1037.98 75.3539L1044.03 72.6339L1048.46 70.6469L1054.25 68.0629L1059.92 65.5476L1066.86 62.4898L1072.31 60.1047L1077.69 57.7666L1081.69 56.0399L1086.99 53.7683L1090.94 52.0839L1094.41 50.6132L1096.37 49.8028L1098.09 49.1057L1100.56 48.1289L1104.14 46.7509L1109.51 44.7189L1116.51 42.0895L1120.55 40.5479L1123.23 39.5095L1125.26 38.7081L1127.14 37.9546L1128.53 37.3801L1129.85 36.8255L1131.72 36.0201L1132.61 35.625L1133.47 35.2321L1134.88 34.577L1135.98 34.0471L1136.81 33.6431C1142.54 30.8053 1146.16 27.9084 1150 23.5552L1150.37 23.1293C1150.42 23.0688 1150.45 23.0358 1150.43 22.9154L1150.41 22.7881L1150.33 22.4816L1150.15 21.8607L1149.93 21.1271L1149.84 20.8063L1149.76 20.5142L1149.7 20.2161L1149.65 19.9547L1149.61 19.6969L1149.56 19.2509L1149.42 19.2148L1149.21 19.1673L1149.07 19.1385L1148.76 19.0851C1148.71 19.0767 1148.66 19.0685 1148.6 19.0605L1148.26 19.0154L1147.88 18.976L1147.48 18.9422L1147.05 18.9142L1146.59 18.892L1146.1 18.8757L1145.58 18.8653L1144.74 18.8611C1144.65 18.8614 1144.55 18.862 1144.45 18.8628L1143.84 18.8707L1143.2 18.8849L1142.17 18.918L1141.07 18.9655L1139.9 19.0276L1138.66 19.1046L1137.33 19.1966L1135.45 19.3432L1134.45 19.4269L1132.96 19.5597L1130.23 19.8169L1127.57 20.0874L1125.35 20.3286L1122.64 20.6438L1119.32 21.0569L1116.26 21.4589L1111.75 22.0778L1105.18 23.0108L1094.35 24.5571L1081.04 26.3859L1072.57 27.5649L1063.29 28.8728L1058.26 29.5909L1051.06 30.6331L1047.61 31.1399L1043.15 31.8027L1037.8 32.6128L1032.66 33.4057L1028.7 34.0298L1023.9 34.8004L1021.11 35.2588L1016.57 36.0189L1013.91 36.4738L1010.44 37.0805L1007.87 37.5366L1004.5 38.1477L1002.84 38.4549L1000.36 38.9186L996.275 39.7008L993.032 40.3369L988.996 41.1478L987.382 41.4779L984.858 42.0008L973.946 44.2949L964.069 46.3837L950.284 49.3199L940.188 51.4859L924.491 54.8786L899.378 60.3576L870.453 66.7209L782.404 86.209L754.448 92.3925L743.392 94.8729L733.934 97.0347L726.804 98.7019L723.142 99.5736L718.591 100.672L691.652 107.274L650.628 117.391L593.616 131.541L450.803 167.079L418.106 175.172L364.166 188.446L332.514 196.16L318.959 199.428L306.762 202.344L298.096 204.4L290.556 206.179L283.129 207.921L277.586 209.197L272.708 210.301L268.526 211.234L262.455 212.569L257.014 213.748L250.34 215.176L242.218 216.892L230.683 219.304L224.029 220.751L209.586 223.92L206.945 224.486L204.825 224.927L203.504 225.185L202.505 225.36L201.07 225.595L199.614 225.814L198.121 226.018L196.892 226.171L195.944 226.28L194.64 226.418L193.283 226.549L191.867 226.673L190.384 226.79L188.016 226.956L186.333 227.059L183.631 227.206L180.694 227.345L177.499 227.477L172.168 227.667L165.619 227.866L163.123 227.929L161.285 227.966L159.174 227.994L158 228L156.891 227.997L155.845 227.985L155.18 227.971L154.54 227.953L153.924 227.93L153.331 227.902L152.76 227.869L151.943 227.81L151.423 227.763L150.921 227.711L150.437 227.654L149.969 227.59L149.516 227.52L149.078 227.444L148.653 227.361L148.241 227.272L147.839 227.176L147.449 227.073L147.067 226.963L146.694 226.846L146.328 226.722L145.968 226.589L145.614 226.449L145.264 226.302L144.917 226.146L144.572 225.981L144.229 225.809L143.714 225.534L143.196 225.239L142.847 225.032L142.316 224.703L141.956 224.472L141.215 223.98L140.637 223.586L140.44 223.45C137.075 221.114 135.12 218.37 134.627 215.271L134.52 214.593L134.318 213.272L134.134 211.994L133.967 210.757C133.94 210.554 133.914 210.353 133.889 210.153L133.748 208.973C133.019 202.581 133.096 197.765 134.183 192.633C136.05 183.818 140.98 176.136 149.741 169.386C151.998 167.648 154.351 165.905 156.801 164.156L158.449 162.989C160.388 161.626 162.386 160.26 164.444 158.89L166.222 157.714C168.911 155.949 171.698 154.177 174.584 152.396L176.523 151.208C177.499 150.613 178.487 150.017 179.486 149.42L181.498 148.226L183.54 147.028L185.611 145.828L187.712 144.625C188.064 144.424 188.418 144.223 188.773 144.022L190.919 142.814L193.094 141.604L195.299 140.39L197.533 139.173L199.798 137.952L202.092 136.729C202.862 136.321 203.637 135.911 204.417 135.502L206.771 134.271C207.166 134.066 207.562 133.861 207.96 133.655L210.36 132.419C210.762 132.213 211.166 132.006 211.571 131.8L214.016 130.559L216.491 129.313L218.996 128.065L221.532 126.812L224.098 125.555L226.695 124.294L229.322 123.029L231.98 121.76L234.668 120.486L237.387 119.209L240.136 117.926L242.917 116.64L245.728 115.349L248.57 114.053L251.443 112.752L254.347 111.447L257.282 110.137L260.248 108.821L262.887 107.658L266.284 106.169L269.615 104.719L272.952 103.274L277.422 101.353L281.925 99.4337L285.331 97.9924L288.768 96.5471L292.241 95.0957L296.936 93.1474L300.513 91.6735L305.365 89.6875L309.073 88.1797L314.118 86.1407L319.292 84.0644L323.263 82.4798L328.689 80.3263L334.276 78.1219L341.504 75.2868L349.026 72.3544L356.867 69.3147L366.728 65.5118L378.91 60.8394L393.803 55.1559L432.751 40.3638L443.034 36.4866L452.149 33.0807L458.703 30.6576L463.789 28.7966L468.177 27.2066L471.744 25.9259L475.302 24.6582L478.61 23.4888L481.967 22.3101L484.542 21.412L487.445 20.4168L489.5 19.7267L491.987 18.9069L495.43 17.7954L500.207 16.2857L506.997 14.1767L522.002 9.55205L527.53 7.82095L455.525 17.8347L437.193 20.4059L419.75 22.8778L404.08 25.1309L390.602 27.1028L379.607 28.7399L372.426 29.8244L368.17 30.4729L360.481 31.6548L348.924 33.4527L336.4 35.4163L327.119 36.8816L315.404 38.7439L299.686 41.2656L283.421 43.9008L264.796 46.9466L233.139 52.1757L198.446 57.9548L100.584 74.33L73.8693 78.6579L63.76 80.3308L58.394 81.2409L52.9488 82.1886L48.9254 82.9098L44.6898 83.6939L41.1314 84.3766L37.7188 85.0549L35.2269 85.5662L34.3662 85.7461C32.935 86.0466 31.5184 86.351 30.0993 86.6626L28.3938 87.0403L23.2908 88.1817L15.7604 89.8743L10.8008 90.9949L5.87201 92.1134L-4.82428 94.5579L-16.2505 97.1958L-30.3483 100.487L-42.6373 103.385L-54.2827 106.153L-72.3675 110.483L-97.2245 116.482L-197.248 140.765L-213.432 144.65L-222.305 146.768L-223.695 140.931L-210.462 137.77L-180.311 130.498L-104.495 112.07L-79.1279 105.939L-63.3324 102.146L-50.2749 99.0307L-37.9619 96.1146L-29.1113 94.0339L-19.094 91.6964L-10.6883 89.7506L-0.989563 87.5238L7.31474 85.6329L18.5072 83.1059L28.8107 80.8026L30.5316 80.4279L33.9901 79.6949L37.0699 79.0646L39.3216 78.6167L41.1642 78.2579L44.4987 77.6246L46.9831 77.1649L51.1727 76.4096L55.0923 75.7217L60.5406 74.7886L67.9293 73.5538L74.6635 72.4488L102.805 67.8832L202.446 51.2037L240.637 44.8507L261.475 41.4119L282.149 38.0289L300.197 35.1058L314.954 32.7399L322.911 31.4737L332.184 30.0066L343.178 28.2786L354.374 26.5304L360.138 25.6367L367.262 24.5419L377.809 22.9428L386.005 21.7179L399.258 19.7688L407.243 18.6108L422.22 16.4654L442.642 13.5805L470.764 9.65282L526.784 1.86793L528.079 1.69475L529.406 1.52648L530.777 1.36177L532.691 1.14534L534.727 0.929623L536.911 0.711401L541.161 0.313833L543.178 0.133829L543.807 0.0856187C543.921 0.0780204 544.037 0.070706 544.155 0.0637737L544.873 0.027553C545.111 0.0175325 545.343 0.00982724 545.559 0.00522368Z" fill="#093F68"/>
</svg>
